<svg xmlns="http://www.w3.org/2000/svg" fill="red" viewBox="0 0 24 30" x="0px" y="0px"><defs><style>.cls-1{stroke-width:0px;}</style></defs><path class="cls-1" d="m12,3.25C7.175,3.25,3.25,7.175,3.25,12s3.925,8.75,8.75,8.75,8.75-3.925,8.75-8.75S16.825,3.25,12,3.25Zm-7.25,8.75c0-3.998,3.252-7.25,7.25-7.25,1.729,0,3.318.61,4.565,1.624l-10.191,10.191c-1.014-1.247-1.624-2.836-1.624-4.565Zm7.25,7.25c-1.729,0-3.318-.61-4.565-1.624l10.191-10.191c1.014,1.247,1.624,2.836,1.624,4.565,0,3.998-3.252,7.25-7.25,7.25Z"/><text x="0" y="39" fill="#000000" font-size="5px" font-weight="bold" font-family="'Helvetica Neue', Helvetica, Arial-Unicode, Arial, Sans-serif">Created by Saepul Nahwan</text><text x="0" y="44" fill="#000000" font-size="5px" font-weight="bold" font-family="'Helvetica Neue', Helvetica, Arial-Unicode, Arial, Sans-serif">from the Noun Project</text></svg>
